<svg width="178" height="54" viewBox="0 0 178 54" fill="none" xmlns="http://www.w3.org/2000/svg">
<path d="M68.4774 24.9166C69.3885 24.9166 70.2538 25.0987 71.0714 25.4591C71.887 25.8215 72.5995 26.3219 73.2031 26.9603C73.8086 27.5988 74.2843 28.3388 74.6357 29.1805C74.9853 30.0222 75.161 30.9214 75.161 31.88V32.6776C75.077 33.3371 74.9165 33.9334 74.6835 34.4664C74.4504 34.9994 74.1945 35.4672 73.9194 35.8717H73.9519C73.6539 36.3184 73.2719 36.746 72.8058 37.1486L72.7103 37.2445C71.6291 38.182 70.3436 38.7035 68.8594 38.8089H68.8269C68.7849 38.8089 68.7314 38.8147 68.6684 38.8243C68.6054 38.8358 68.5404 38.8396 68.4774 38.8396C67.6293 38.8396 66.8022 38.669 65.9961 38.3277V44.9403H61.6677V25.8713H65.104C65.614 25.5742 66.1489 25.3383 66.7105 25.1677C67.2721 24.9971 67.8604 24.9127 68.4774 24.9127V24.9166ZM70.9911 31.5924C71.0122 30.8255 70.9166 29.9953 70.7046 29.1019C70.6416 28.9102 70.5556 28.6974 70.4506 28.4635C70.1755 27.825 69.8661 27.3457 69.528 27.0255V26.9929C69.379 26.8645 69.2472 26.7744 69.1307 26.7207C69.0141 26.667 68.9129 26.6306 68.8288 26.6095C68.7868 26.5884 68.7123 26.5769 68.6054 26.5769H68.4468C68.1068 26.598 67.7935 26.7475 67.5089 27.0236C67.2224 27.3016 66.9684 27.6678 66.7449 28.126C66.5214 28.5843 66.3476 29.1153 66.2196 29.7231C66.0916 30.3309 66.0286 30.9751 66.0286 31.6557V31.7841C66.0286 31.8474 66.0381 31.8915 66.061 31.9126V31.9452C66.082 32.5836 66.1508 33.1856 66.2673 33.7493C66.3838 34.313 66.5481 34.8096 66.7601 35.2352C66.9722 35.6608 67.2109 36.0078 67.4765 36.2724C67.742 36.5389 68.0228 36.6923 68.3207 36.7364C68.3628 36.7364 68.4105 36.7421 68.464 36.7517C68.5175 36.7632 68.5652 36.7671 68.6073 36.7671C68.6283 36.7671 68.6493 36.7613 68.6703 36.7517C68.6913 36.7421 68.7238 36.7364 68.7658 36.7364C68.8709 36.7364 69.0103 36.6731 69.1803 36.5447C69.7094 36.2475 70.1449 35.6512 70.485 34.7559C70.8231 33.8605 70.995 32.829 70.995 31.6576V31.5943L70.9911 31.5924Z" fill="#019549"/>
<path d="M89.8617 29.516C89.7127 30.6664 89.6649 32.0391 89.7184 33.6362C89.7719 35.2333 90.0737 36.9895 90.6258 38.9067H85.7892V38.299C85.0042 38.6402 84.2095 38.8415 83.4034 38.9067H83.0214C82.0873 38.9067 81.2182 38.7265 80.4121 38.3641C79.606 38.0018 78.905 37.5071 78.311 36.8783C77.7169 36.2494 77.2451 35.5151 76.8955 34.6734C76.546 33.8318 76.3702 32.9326 76.3702 31.9739C76.3702 31.0153 76.546 30.1219 76.8955 29.2917C77.2451 28.4615 77.7169 27.733 78.311 27.1041C78.905 26.4753 79.6041 25.9806 80.4121 25.6183C81.2182 25.2559 82.0873 25.0757 83.0214 25.0757C83.8065 25.0757 84.5495 25.2041 85.2487 25.4591L85.6937 25.6509L84.5801 26.9603C84.2611 26.7686 83.9383 26.6728 83.6097 26.6728C83.2812 26.6728 83.031 26.6938 82.861 26.736C82.775 26.736 82.712 26.7475 82.6699 26.7686C82.372 26.876 82.0969 27.0715 81.8428 27.3591C81.5888 27.6467 81.3653 28.0148 81.1743 28.4615C80.9833 28.9083 80.8343 29.4144 80.7292 29.9781C80.6223 30.5418 80.5707 31.1438 80.5707 31.7822V31.8781C80.5707 31.9414 80.5802 31.995 80.6032 32.0372V32.0698C80.6242 32.7083 80.6929 33.3045 80.8094 33.8586C80.926 34.4127 81.0845 34.8978 81.287 35.3119C81.4876 35.7279 81.7206 36.0673 81.988 36.3338C82.2535 36.6003 82.5458 36.7652 82.8629 36.8284C82.9049 36.8284 82.9469 36.8342 82.9908 36.8438C83.0329 36.8553 83.0749 36.8591 83.1188 36.8591C83.1628 36.8591 83.1933 36.8533 83.2143 36.8438C83.2354 36.8342 83.2564 36.8284 83.2774 36.8284C83.3824 36.8284 83.5314 36.7652 83.7224 36.6367C84.2515 36.3395 84.6871 35.7433 85.0271 34.8479C85.3671 33.9525 85.5371 32.9307 85.5371 31.7822V31.4141C85.5371 31.3182 85.5256 31.2166 85.5046 31.1112C85.5046 30.8562 85.4779 30.5475 85.4244 30.1852C85.3709 29.8228 85.3231 29.4623 85.2811 29.1C85.2181 28.7165 85.1531 28.3005 85.0901 27.8538L86.8093 25.8733H90.6907C90.3087 26.9584 90.0336 28.174 89.8636 29.5141L89.8617 29.516Z" fill="#019549"/>
<path d="M104.308 28.847C104.308 28.868 104.329 29.0233 104.371 29.3109C104.413 29.5985 104.446 29.9014 104.467 30.2216C104.467 30.4133 104.455 30.5629 104.434 30.6683V39.0371H100.679V29.6139C100.679 29.5506 100.673 29.3646 100.664 29.054C100.652 28.7453 100.595 28.4635 100.488 28.2066C100.467 28.1433 100.446 28.0839 100.425 28.0302C100.404 27.9765 100.371 27.919 100.329 27.8538H100.297C100.297 27.8327 100.291 27.8212 100.281 27.8212C100.272 27.8212 100.266 27.8116 100.266 27.7886C100.138 27.618 99.9912 27.4953 99.8212 27.4205C99.6512 27.3457 99.4811 27.2882 99.3111 27.2441C99.1201 27.202 98.9291 27.1905 98.7381 27.2115C98.4401 27.2326 98.1651 27.3189 97.911 27.4665C97.89 27.4665 97.8575 27.4876 97.8155 27.5298C97.5614 27.7004 97.3914 27.9458 97.3055 28.2641C97.2214 28.5843 97.1679 28.8604 97.1469 29.0943V39.0275H93.0745V28.1031L91.2923 26.6651L94.3466 25.6106L95.1413 26.4408C95.4163 26.1858 95.7468 25.9519 96.1269 25.7372C96.4669 25.5665 96.8852 25.4017 97.3838 25.2425C97.8823 25.0834 98.4707 25.0029 99.1507 25.0029C99.8307 25.0029 100.434 25.0987 101.028 25.2905C101.538 25.4611 102.058 25.7333 102.587 26.1053C103.116 26.4772 103.552 27.0275 103.892 27.7503C103.976 27.8998 104.056 28.059 104.13 28.2296C104.205 28.4002 104.262 28.6015 104.306 28.8374L104.308 28.847Z" fill="#019549"/>
<path d="M111.085 32.806C111.064 33.3812 111.118 33.9238 111.244 34.4357C111.349 34.8824 111.546 35.331 111.832 35.7777C112.119 36.2245 112.537 36.5657 113.089 36.7996C113.11 36.7996 113.125 36.8054 113.137 36.815C113.146 36.8265 113.164 36.8303 113.185 36.8303C113.269 36.8725 113.355 36.9051 113.439 36.9262C113.588 36.9895 113.809 37.022 114.107 37.022C114.447 36.9799 114.875 36.8572 115.397 36.6539C115.916 36.4526 116.451 36.0519 117.003 35.4557L119.072 36.1267C118.436 37.0642 117.624 37.8081 116.638 38.3622C115.653 38.9163 114.564 39.1924 113.376 39.1924C112.421 39.1924 111.525 39.0064 110.686 38.6325C109.848 38.2606 109.11 37.7429 108.474 37.0834C107.838 36.4239 107.34 35.657 106.979 34.7827C106.617 33.9103 106.438 32.9728 106.438 31.972C106.438 30.9712 106.617 30.0356 106.979 29.1613C107.34 28.289 107.838 27.5221 108.474 26.8606C109.11 26.2011 109.848 25.6853 110.686 25.3115C111.525 24.9395 112.421 24.7516 113.376 24.7516C114.331 24.7516 115.232 24.9376 116.08 25.3115C116.929 25.6853 117.666 26.2011 118.292 26.8606C118.917 27.5202 119.412 28.2871 119.773 29.1613C120.134 30.0356 120.313 30.9712 120.313 31.972V32.8022H111.085V32.806ZM112.9 27.0562C112.369 27.1846 111.981 27.4339 111.739 27.8077C111.494 28.1797 111.32 28.5689 111.213 28.9734C111.106 29.4412 111.064 29.9531 111.085 30.5072H116.05C116.071 29.8688 115.996 29.2821 115.826 28.751C115.677 28.3254 115.433 27.9266 115.095 27.5527C114.755 27.1808 114.256 26.9929 113.599 26.9929C113.429 26.9929 113.301 27.0044 113.217 27.0255C113.047 27.0255 112.942 27.037 112.898 27.0581L112.9 27.0562Z" fill="#019549"/>
<path d="M133.394 28.847C133.394 28.868 133.415 29.0233 133.457 29.3109C133.499 29.5985 133.532 29.9014 133.553 30.2216C133.553 30.4133 133.541 30.5629 133.52 30.6683V39.0371H129.765V29.6139C129.765 29.5506 129.759 29.3646 129.749 29.054C129.738 28.7453 129.681 28.4635 129.574 28.2066C129.553 28.1433 129.532 28.0839 129.511 28.0302C129.49 27.9765 129.457 27.919 129.415 27.8538H129.383C129.383 27.8327 129.377 27.8212 129.367 27.8212C129.358 27.8212 129.352 27.8116 129.352 27.7886C129.224 27.618 129.075 27.4953 128.907 27.4205C128.737 27.3457 128.567 27.2882 128.397 27.2441C128.206 27.202 128.015 27.1905 127.824 27.2115C127.526 27.2326 127.251 27.3189 126.997 27.4665C126.976 27.4665 126.943 27.4876 126.901 27.5298C126.647 27.7004 126.477 27.9458 126.391 28.2641C126.305 28.5843 126.254 28.8604 126.233 29.0943V39.0275H122.16V28.1031L120.378 26.6651L123.433 25.6106L124.229 26.4408C124.504 26.1858 124.835 25.9519 125.215 25.7372C125.555 25.5665 125.973 25.4017 126.472 25.2425C126.97 25.0834 127.559 25.0029 128.239 25.0029C128.919 25.0029 129.522 25.0987 130.116 25.2905C130.626 25.4611 131.144 25.7333 131.675 26.1053C132.206 26.4772 132.64 27.0275 132.98 27.7503C133.064 27.8998 133.144 28.059 133.218 28.2296C133.293 28.4002 133.35 28.6015 133.394 28.8374V28.847Z" fill="#019549"/>
<path d="M178 25.6202V37.6624C177.914 37.7046 177.824 37.764 177.729 37.8388C177.633 37.9136 177.532 37.9826 177.427 38.0459H177.395C176.97 38.3009 176.55 38.5137 176.138 38.6843C175.723 38.8549 175.314 38.993 174.913 39.1004C174.086 39.2921 173.311 39.3879 172.59 39.3879C171.36 39.3669 170.304 39.1694 169.423 38.7974C168.543 38.4255 167.806 38.0267 167.211 37.5992C166.51 37.0872 165.939 36.514 165.492 35.8736V25.6202H169.916V35.8736L169.949 35.9062C170.48 36.652 171.057 37.1467 171.683 37.3921C172.308 37.6375 172.95 37.7391 173.609 37.695V37.6624H173.576V25.6202H178Z" fill="#019549"/>
<path d="M160.125 34.9304C161.263 35.8775 162.207 36.792 162.956 37.674L156.56 41.0061C156.299 40.5479 156.039 40.1069 155.779 39.6832C155.517 39.2576 155.258 38.8665 154.998 38.508C154.476 38.7361 154.047 38.9163 153.705 39.0467C153.363 39.1771 153.176 39.2423 153.143 39.2423C152.07 39.5356 150.979 39.6832 149.873 39.6832C147.888 39.6832 146.024 39.2749 144.284 38.4581C142.542 37.6414 141.029 36.5389 139.743 35.1509C138.458 33.7628 137.44 32.1293 136.693 30.2504C135.944 28.3715 135.57 26.3545 135.57 24.1976C135.57 22.0407 135.944 20.0736 136.693 18.1947C137.442 16.3158 138.458 14.6842 139.743 13.2942C141.029 11.9061 142.542 10.8037 144.284 9.98696C146.024 9.17021 147.888 8.76184 149.873 8.76184C151.858 8.76184 153.672 9.17021 155.414 9.98696C157.154 10.8037 158.677 11.9061 159.98 13.2942C161.28 14.6823 162.306 16.3158 163.055 18.1947C163.804 20.0736 164.178 22.0752 164.178 24.1976C164.178 25.9615 163.926 27.6199 163.422 29.171C162.917 30.722 162.226 32.1523 161.347 33.4579C160.923 34.0465 160.516 34.5354 160.127 34.9285L160.125 34.9304ZM149.921 35.078C150.572 35.078 151.256 34.8997 151.972 34.5393C151.777 34.3437 151.605 34.1635 151.46 34.0005C151.313 33.8375 151.159 33.6746 150.996 33.5097L148.505 31.3049L151.678 29.5889C151.938 29.7519 152.247 29.9168 152.606 30.0797C152.899 30.2427 153.241 30.4306 153.632 30.6434C154.022 30.8562 154.446 31.092 154.902 31.3547C155.422 30.4076 155.821 29.3205 156.098 28.0954C156.375 26.8703 156.513 25.5723 156.513 24.1995C156.513 22.6964 156.343 21.293 156.001 19.9854C155.659 18.6798 155.187 17.5352 154.585 16.5555C153.982 15.5757 153.283 14.7993 152.486 14.2279C151.688 13.6566 150.834 13.3709 149.923 13.3709C149.011 13.3709 148.148 13.6566 147.334 14.2279C146.521 14.7993 145.812 15.5757 145.21 16.5555C144.607 17.5352 144.137 18.6798 143.795 19.9854C143.453 21.293 143.283 22.6983 143.283 24.1995C143.283 25.7007 143.455 27.1157 143.795 28.4386C144.137 29.7615 144.609 30.9137 145.21 31.8935C145.812 32.8732 146.521 33.6497 147.334 34.221C148.148 34.7923 149.01 35.078 149.923 35.078H149.921Z" fill="#EE632C"/>
<path d="M12.479 43.4334C12.479 43.4334 15.0405 45.6957 16.412 46.432L15.9861 42.0721C15.9861 42.0721 14.6795 43.6232 12.479 43.4334Z" fill="#EE632C"/>
<path d="M22.5133 29.8382C22.5133 29.8382 33.512 33.1858 35.5692 46.432C35.5692 46.432 53.2381 38.4563 42.9481 19.6538C42.9481 19.6538 50.753 16.3063 42.6635 8.89996C42.6635 8.89996 41.9071 15.0716 32.8014 13.4573C32.8014 13.4573 30.8377 17.4451 33.5349 18.8697C36.232 20.2942 38.8795 19.2013 39.8728 21.8606C40.8661 24.5198 36.8452 25.1851 34.6218 25.1851C32.3983 25.1851 26.8646 26.3719 22.5114 29.8382H22.5133Z" fill="#019549"/>
<path d="M21.4492 30.6205C9.67115 43.6539 18.0434 49.4229 18.0434 49.4229L20.7157 47.1203L19.9593 49.7796C28.5454 50.278 34.2205 47.0015 34.2205 47.0015C31.8786 33.1858 21.4492 30.6205 21.4492 30.6205ZM20.1216 42.3521C18.9507 42.3521 18.0033 41.3993 18.0033 40.2259C18.0033 39.0525 18.9526 38.0997 20.1216 38.0997C21.2906 38.0997 22.24 39.0525 22.24 40.2259C22.24 41.3993 21.2906 42.3521 20.1216 42.3521Z" fill="#019549"/>
<path d="M6.099 33.3986C6.099 33.3986 7.47049 38.6767 11.35 42.3521C11.35 42.3521 18.8245 43.2264 15.6078 35.2027C15.6078 35.2027 9.64807 36.4374 6.099 33.3986Z" fill="#EE632C"/>
<path d="M21.6631 30.2965C21.3021 28.5901 20.3929 27.921 19.1532 27.8846C17.0654 27.4474 9.86218 25.3174 8.08764 16.4961C8.08764 16.4961 3.97125 23.3809 5.62736 30.6205C5.62736 30.6205 8.37035 35.2506 15.6557 34.0159C15.6557 34.0159 16.0415 33.5462 16.5764 32.8656C16.8171 33.343 17.1494 34.3783 16.2478 35.4404C16.2478 35.4404 16.393 35.7012 16.84 35.1318C17.2621 34.5949 17.7053 33.2567 17.0826 32.2099C17.18 32.0833 17.2793 31.953 17.3787 31.8188C17.6594 32.0392 18.3299 32.6988 18.0033 33.759C17.5945 35.0819 17.1895 35.1528 17.392 35.2966C17.5926 35.4366 19.541 33.1244 18.0606 30.8966C18.179 30.7317 18.2955 30.5687 18.4082 30.4057C18.7425 30.561 19.5199 31.0288 19.583 32.022C19.6613 33.2874 18.8571 33.9527 18.9201 34.1578C18.9832 34.361 21.6479 31.2627 19.0252 29.4778C19.0978 29.3628 19.1646 29.2516 19.2296 29.1423C19.7434 29.148 20.7233 29.2726 21.0653 30.122C21.539 31.2934 21.3174 32.7812 21.4129 32.8598C21.5084 32.9384 22.091 32.3057 21.665 30.2965H21.6631Z" fill="#EE632C"/>
<path d="M45.6661 7.86839C44.1399 6.33651 42.4609 5.01169 40.6634 3.91119C40.7265 3.96295 42.0407 5.05195 43.5879 7.21844H43.5898C49.0872 11.9771 52.5752 19.0153 52.5752 26.8549C52.5752 41.148 40.9901 52.7742 26.7518 52.7742C12.5134 52.7742 0.926427 41.1461 0.926427 26.853C0.926427 12.5599 12.5115 0.9337 26.7498 0.9337C28.9656 0.9337 31.1165 1.21745 33.1699 1.74661C34.0275 2.00353 35.3494 2.56911 35.3933 3.63894C35.4353 5.13823 34.4612 5.76133 34.2224 5.88979C31.5806 6.62985 29.5138 7.00179 29.5138 7.00179L31.0744 5.1018C31.0744 5.1018 28.3773 6.71612 27.9532 6.57425C27.5273 6.43237 27.9532 5.95689 27.9532 5.95689C27.9532 5.95689 25.1625 8.28252 24.6888 7.85689C24.2151 7.42934 24.6888 7.14559 24.6888 7.14559C21.8503 8.75991 20.857 8.61804 16.3166 9.56707C11.7761 10.5161 9.69405 14.3142 9.69405 14.3142C10.546 24.7594 18.6336 26.5156 18.6336 26.5156C18.8533 25.8023 19.2926 25.1409 19.8198 24.5504C19.8198 24.5504 23.3402 23.6914 23.8846 25.162C24.429 26.6325 23.7433 27.6659 23.7433 27.6659C23.7433 27.6659 24.1692 28.057 24.429 26.6325C24.6888 25.208 24.6888 23.8793 22.9868 23.3559C22.9868 23.3559 23.8388 22.4529 25.258 22.8574C26.6773 23.2601 26.6543 24.5906 26.5588 25.4917C26.5588 25.4917 27.0555 25.231 26.8893 23.9004C26.7231 22.5718 26.0374 21.5269 23.5771 21.7646C26.2016 19.6748 26.4385 17.9665 26.4385 17.9665L26.7231 18.442L30.318 14.7379L28.0468 15.0696C31.3591 11.793 31.9722 8.89795 31.9722 8.89795C35.804 7.37949 37.4601 4.86214 37.4601 4.86214C36.9386 5.05003 36.4172 5.2245 35.9033 5.38555C36.1631 5.00019 36.3331 4.58798 36.3713 4.14893C36.3904 3.92461 36.3866 3.71755 36.3637 3.52007C36.0676 1.6565 33.7964 0.935618 33.0667 0.749644C31.0229 0.256911 28.9045 0 26.7479 0C19.6059 0.0038345 12.8878 2.79727 7.83547 7.86839C2.7831 12.9395 0 19.6825 0 26.853C0 34.0235 2.7831 40.7665 7.83547 45.8376C12.8878 50.9087 19.6059 53.7021 26.7498 53.7021C33.8938 53.7021 40.6119 50.9087 45.6642 45.8376C50.7166 40.7665 53.4997 34.0235 53.4997 26.853C53.4997 19.6825 50.7166 12.9395 45.6642 7.86839H45.6661ZM22.8455 12.9357C21.6707 12.9357 20.7176 11.979 20.7176 10.7999C20.7176 9.62076 21.6707 8.66405 22.8455 8.66405C24.0202 8.66405 24.9734 9.62076 24.9734 10.7999C24.9734 11.979 24.0202 12.9357 22.8455 12.9357Z" fill="#EE632C"/>
</svg>
